#!OML:ASF E:/inclinewalkrobotboard/Project1/Captureday1/Session1/subject1.ASF
:FULLY-SPECIFIED
:DEGREES
138
root 0 0 0 76.31545040536597 -27.41213256118656 -45.45716803193484
lowerback -11.188835776546043 7.863057668760936 9.56751875744298
upperback -20.515950260340745 10.07420906644899 2.958658416078102
thorax -15.454827899689224 3.9700412352439365 -1.7122418073638555
lowerneck -7.545118214967654 9.77197108025008 5.411382493817814
upperneck 11.710675402911257 11.680400626385529 7.288127398391161
head 4.805201871007982 6.267311123660981 2.0770696318454136
rclavicle 6.07346127944337E-15 -3.414816126851191E-15
rhumerus 108.62808830514534 -24.91288041278254 -115.0667641606298
rradius 0.8175278534989658
rwrist 69.61082428642656
rhand 13.766076287025353 -12.616473793382353
rfingers 7.125020000000017
rthumb 38.76027340148255 -38.50178351076048
lclavicle -6.790909691600227E-16 1.504000675474143E-15
lhumerus -0.13441199346060273 24.994393744343 1.734994381736719
lradius 9.272990241113177
lwrist -41.46983504133551
lhand 12.091077642773548 36.728727697352454
lfingers 7.125020000000047
lthumb 37.19888774656833 63.82273384179636
rfemur 183.0819755601879 -219.73325383755315 -192.05939061056804
rtibia 67.37021198414332
rfoot -22.852032124453633 -9.938433375884186
rtoes 49.880774204010706
lfemur -109.46560963191463 35.76432433446934 -24.151399054591135
ltibia 68.12175039277896
lfoot -38.31361637700911 35.575942643609935
ltoes 38.92355936194084
139
root 0 0 0 76.3201691078338 -27.387958900567074 -45.46495577334386
lowerback -11.189525901357968 7.862768722842702 9.572392170292222
upperback -20.519533819036972 10.074034025889828 2.9620322147060136
thorax -15.457813381591702 3.9696443538609687 -1.7113189343460196
lowerneck -7.5390916363975515 9.771536399389394 5.4103833362590805
upperneck 11.711776708917514 11.680327586880034 7.2878990869643445
head 4.804828456563292 6.267061858077174 2.0768135467816995
rclavicle 6.143708482893212E-15 -3.3402920857364664E-15
rhumerus 108.70027920501312 -24.914078473236117 -115.04360663879682
rradius 0.8768955363388287
rwrist 69.55693188525707
rhand 13.736257504303698 -12.595002691745899
rfingers 7.125020000000017
rthumb 38.73120231912108 -38.48376820013631
lclavicle -5.688967666114461E-16 1.5844612370339344E-15
lhumerus -0.45121271371045957 24.830078396612322 1.7201926150304843
lradius 9.352489179355608
lwrist -41.461018432763346
lhand 12.123783494203535 36.76254730249666
lfingers 7.125020000000047
lthumb 37.22975225273688 63.84746687805751
rfemur 183.09504420417807 -219.77836896791518 -192.08121586271886
rtibia 67.32831785765902
rfoot -23.064485285094104 -9.809136409794739
rtoes 49.812223514361676
lfemur -109.4718563821254 35.7743625252383 -24.14021739196062
ltibia 67.98447021951642
lfoot -38.2779522484827 35.60930768287922
ltoes 38.965031675918915
140
root 0 0 0 76.31782195746652 -27.400483069291766 -45.461017722315916
lowerback -11.18916823538579 7.862937394823977 9.569947920980177
upperback -20.517943629133654 10.074123391680127 2.9604640858437303
thorax -15.456599339243052 3.9698460386062013 -1.711597614346263
lowerneck -7.5419292809828224 9.772108310234376 5.4109333527346015
upperneck 11.710069181986633 11.680916323606624 7.288288323262981
head 4.804539325113314 6.267445377355756 2.0770442586003055
rclavicle 6.0910968020757625E-15 -3.4181231652492262E-15
rhumerus 108.70859793972227 -24.925875826404443 -115.08065614703592
rradius 0.8567493168580391
rwrist 69.5731914874828
rhand 13.730047721591223 -12.595067044031348
rfingers 7.125020000000017
rthumb 38.72572268039182 -38.486001147562106
lclavicle -6.230895754077802E-16 1.509448004899944E-15
lhumerus -0.26703101279712804 24.87481841682251 1.6889131979013356
lradius 9.330286929060755
lwrist -41.45158724952506
lhand 12.124126283685653 36.75744066975564
lfingers 7.125020000000047
lthumb 37.23012074778871 63.84319533069993
rfemur 183.10473440649804 -219.76583822327584 -192.08087036514343
rtibia 67.35318880304081
rfoot -22.948772986600087 -9.860654128892008
rtoes 49.845983441960854
lfemur -109.46576739087297 35.77137181619988 -24.1338988361197
ltibia 68.02690079513664
lfoot -38.29724498082368 35.592956722436824
ltoes 38.95516435817953
141
root 0 0 0 76.31717816086305 -27.40333604113813 -45.46005497613796
lowerback -11.188929238990792 7.863014154900261 9.56930284463493
upperback -20.51754333548768 10.074184389882351 2.960060564873105
thorax -15.45638420820211 3.969917196963401 -1.711657559896267
lowerneck -7.542674594663868 9.77227636623778 5.411029675764432
upperneck 11.709257242241687 11.681125720572668 7.28844509640961
head 4.804324482212896 6.267565750672602 2.0771242520268816
rclavicle 6.0847616956542595E-15 -3.4208619954202433E-15
rhumerus 108.68208667690173 -24.926578390727688 -115.09185092501936
rradius 0.836451247727588
rwrist 69.59218118809382
rhand 13.736539431073982 -12.599534517950106
rfingers 7.125020000000017
rthumb 38.73210079375687 -38.489791862909094
lclavicle -6.490633463192143E-16 1.5016931487992785E-15
lhumerus -0.18154444845186646 24.91571979766359 1.6885411507087582
lradius 9.311734532266545
lwrist -41.454368239732446
lhand 12.118395505067475 36.74914717096493
lfingers 7.125020000000047
lthumb 37.22473783599138 63.83685353517342
rfemur 183.09574489700432 -219.749289683956 -192.07112465812997
rtibia 67.36297839692708
rfoot -22.890798755460793 -9.901974487713483
rtoes 49.86461349943177
lfemur -109.46224634233982 35.76979236662331 -24.137339522488396
ltibia 68.06140250453907
lfoot -38.304240795344796 35.58411427829846
ltoes 38.94405583372051
142
root 0 0 0 76.31616158744077 -27.408704690272366 -45.458450179199744
lowerback -11.188722966993911 7.863063963756343 9.568264015503988
upperback -20.51655072453329 10.074225432986312 2.959192939055915
thorax -15.455496993241805 3.969997904273786 -1.7120538870604651
lowerneck -7.544237992883643 9.772136714560714 5.411241370012004
upperneck 11.709853843621765 11.68075823882087 7.288283186962904
head 4.804772742189477 6.267445548819454 2.077104507903325
rclavicle 6.076131300774644E-15 -3.4181895060307696E-15
rhumerus 108.66987156279491 -24.92330173595421 -115.09466310398969
rradius 0.82327716841964
rwrist 69.61033857820588
rhand 13.746576725675588 -12.60663012547217
rfingers 7.125020000000017
rthumb 38.74175340043438 -38.49543734341869
lclavicle -6.707790102777866E-16 1.502425634891781E-15
lhumerus -0.14268762116117806 24.962500216945962 1.7130774443565784
lradius 9.288903897541815
lwrist -41.46216899944311
lhand 12.103003081272517 36.737726129945855
lfingers 7.125020000000047
lthumb 37.210174612819486 63.82905362184549
rfemur 183.08839854373247 -219.7402573028073 -192.065394735398
rtibia 67.36606484923965
rfoot -22.868330409522862 -9.921938428705598
rtoes 49.87615204390349
lfemur -109.46245651460067 35.7663251080474 -24.144273860045722
ltibia 68.09727404430535
lfoot -38.31256795426285 35.57814236669297
ltoes 38.93152270511623
